<?xml version="1.0" encoding="UTF-8"?>
<svg height="600" width="800" xmlns="http://www.w3.org/2000/svg" xmlns:xlink="http://www.w3.org/1999/xlink">
    <g id="Notes" font-family="'LucidaGrande', 'Lucida Grande', sans-serif" font-size="13">
        <rect fill="white" height="600.0" width="800.0" x="0.0" y="0.0" />
        <g font-size="13">
            <text x="18.0" y="176.0">Small</text>
            <text x="18.0" y="376.0">Medium</text>
            <text x="18.0" y="576.0">Large</text>
        </g>
        <g font-size="9">
            <text x="250.0" y="30.0">Ultralight</text>
            <text x="450.0" y="30.0">Regular</text>
            <text x="650.0" y="30.0">Black</text>
            <text id="template-version" fill="#505050" text-anchor="end" x="785.0" y="575.0">Template v.3.0</text>
            <a href="https://wangchujiang.com/#/app">
                <text fill="#505050" text-anchor="end" x="785.0" y="590.0">https://wangchujiang.com/#/app</text>
            </a>
        </g>
    </g>
    <g id="Guides" stroke="rgb(39, 170, 225)" stroke-width="0.5">
        <path id="Capline-S" d="M18,76 l800,0" />
        <path id="H-reference" d="M85,145.755 L87.685,145.755 L113.369,79.287 L114.052,79.287 L114.052,76 L112.148,76 L85,145.755 Z M95.693,121.536 L130.996,121.536 L130.263,119.313 L96.474,119.313 L95.693,121.536 Z M139.15,145.755 L141.787,145.755 L114.638,76 L113.466,76 L113.466,79.287 L139.15,145.755 Z" stroke="none" />
        <path id="Baseline-S" d="M18,146 l800,0" />
        <path id="left-margin-Ultralight-S" d="M220,56 l0,110" />
        <path id="right-margin-Ultralight-S" d="M310,56 l0,110" />
        <path id="left-margin-Regular-S" d="M420,56 l0,110" />
        <path id="right-margin-Regular-S" d="M510,56 l0,110" />
        <path id="left-margin-Black-S" d="M620,56 l0,110" />
        <path id="right-margin-Black-S" d="M710,56 l0,110" />
        <path id="Capline-M" d="M18,276 l800,0" />
        <path id="Baseline-M" d="M18,346 l800,0" />
        <path id="Capline-L" d="M18,476 l800,0" />
        <path id="Baseline-L" d="M18,546 l800,0" />
    </g>
    <g id="Symbols">
        <g id="Ultralight-S">
            <path d="M232.917,144.542 C231.306,144.542 230,143.236 230,141.625 L230,96.836 C230,94.549 231.337,92.472 233.419,91.526 L262.586,78.268 C264.12,77.571 265.88,77.571 267.414,78.268 L296.581,91.526 C298.663,92.472 300,94.549 300,96.836 L300,141.625 C300,143.236 298.694,144.542 297.083,144.542 L232.917,144.542 Z M241.667,144.542 L288.333,144.542 L288.333,106.625 C288.333,105.014 287.028,103.708 285.417,103.708 L244.583,103.708 C242.973,103.708 241.667,105.014 241.667,106.625 L241.667,144.542 Z M282.5,109.542 L282.5,144.542 L247.5,144.542 L247.5,109.542 L282.5,109.542 Z M247.5,115.375 L247.5,121.208 L282.5,121.208 L282.5,115.375 L247.5,115.375 Z M247.5,138.708 L247.5,144.542 L282.5,144.542 L282.5,138.708 L247.5,138.708 Z M247.5,127.042 L247.5,132.875 L282.5,132.875 L282.5,127.042 L247.5,127.042 Z" />
        </g>
        <g id="Regular-S">
            <path d="M432.917,144.542 C431.306,144.542 430,143.236 430,141.625 L430,96.836 C430,94.549 431.337,92.472 433.419,91.526 L462.586,78.268 C464.12,77.571 465.88,77.571 467.414,78.268 L496.581,91.526 C498.663,92.472 500,94.549 500,96.836 L500,141.625 C500,143.236 498.694,144.542 497.083,144.542 L432.917,144.542 Z M441.667,144.542 L488.333,144.542 L488.333,106.625 C488.333,105.014 487.028,103.708 485.417,103.708 L444.583,103.708 C442.973,103.708 441.667,105.014 441.667,106.625 L441.667,144.542 Z M482.5,109.542 L482.5,144.542 L447.5,144.542 L447.5,109.542 L482.5,109.542 Z M447.5,115.375 L447.5,121.208 L482.5,121.208 L482.5,115.375 L447.5,115.375 Z M447.5,138.708 L447.5,144.542 L482.5,144.542 L482.5,138.708 L447.5,138.708 Z M447.5,127.042 L447.5,132.875 L482.5,132.875 L482.5,127.042 L447.5,127.042 Z" />
        </g>
        <g id="Black-S">
            <path d="M632.917,144.542 C631.306,144.542 630,143.236 630,141.625 L630,96.836 C630,94.549 631.337,92.472 633.419,91.526 L662.586,78.268 C664.12,77.571 665.88,77.571 667.414,78.268 L696.581,91.526 C698.663,92.472 700,94.549 700,96.836 L700,141.625 C700,143.236 698.694,144.542 697.083,144.542 L632.917,144.542 Z M641.667,144.542 L688.333,144.542 L688.333,106.625 C688.333,105.014 687.028,103.708 685.417,103.708 L644.583,103.708 C642.973,103.708 641.667,105.014 641.667,106.625 L641.667,144.542 Z M682.5,109.542 L682.5,144.542 L647.5,144.542 L647.5,109.542 L682.5,109.542 Z M647.5,115.375 L647.5,121.208 L682.5,121.208 L682.5,115.375 L647.5,115.375 Z M647.5,138.708 L647.5,144.542 L682.5,144.542 L682.5,138.708 L647.5,138.708 Z M647.5,127.042 L647.5,132.875 L682.5,132.875 L682.5,127.042 L647.5,127.042 Z" />
        </g>
    </g>
</svg>