<?xml version="1.0" encoding="UTF-8"?>
<svg height="600" width="800" xmlns="http://www.w3.org/2000/svg" xmlns:xlink="http://www.w3.org/1999/xlink">
    <style>
        .cls-1 { fill: #009EEB }
    </style>
    <g id="Notes" font-family="'LucidaGrande', 'Lucida Grande', sans-serif" font-size="13">
        <rect fill="white" height="600.0" width="800.0" x="0.0" y="0.0" />
        <g font-size="13">
            <text x="18.0" y="176.0">Small</text>
            <text x="18.0" y="376.0">Medium</text>
            <text x="18.0" y="576.0">Large</text>
        </g>
        <g font-size="9">
            <text x="250.0" y="30.0">Ultralight</text>
            <text x="450.0" y="30.0">Regular</text>
            <text x="650.0" y="30.0">Black</text>
            <text id="template-version" fill="#505050" text-anchor="end" x="785.0" y="575.0">Template v.3.0</text>
            <a href="https://wangchujiang.com/#/app">
                <text fill="#505050" text-anchor="end" x="785.0" y="590.0">https://wangchujiang.com/#/app</text>
            </a>
        </g>
    </g>
    <g id="Guides" stroke="rgb(39, 170, 225)" stroke-width="0.5">
        <path id="Capline-S" d="M18,76 l800,0" />
        <path id="H-reference" d="M85,145.755 L87.685,145.755 L113.369,79.287 L114.052,79.287 L114.052,76 L112.148,76 L85,145.755 Z M95.693,121.536 L130.996,121.536 L130.263,119.313 L96.474,119.313 L95.693,121.536 Z M139.15,145.755 L141.787,145.755 L114.638,76 L113.466,76 L113.466,79.287 L139.15,145.755 Z" stroke="none" />
        <path id="Baseline-S" d="M18,146 l800,0" />
        <path id="left-margin-Ultralight-S" d="M220,56 l0,110" />
        <path id="right-margin-Ultralight-S" d="M310,56 l0,110" />
        <path id="left-margin-Regular-S" d="M420,56 l0,110" />
        <path id="right-margin-Regular-S" d="M510,56 l0,110" />
        <path id="left-margin-Black-S" d="M620,56 l0,110" />
        <path id="right-margin-Black-S" d="M710,56 l0,110" />
        <path id="Capline-M" d="M18,276 l800,0" />
        <path id="Baseline-M" d="M18,346 l800,0" />
        <path id="Capline-L" d="M18,476 l800,0" />
        <path id="Baseline-L" d="M18,546 l800,0" />
    </g>
    <g id="Symbols">
        <g id="Ultralight-S">
            <path d="M295.215,81.996 L231.821,106.528 C231.783,106.542 231.747,106.56 231.712,106.58 C231.198,106.871 227.61,109.065 232.669,111.033 L232.721,111.052 L247.816,115.929 C248.049,116.004 248.304,115.973 248.512,115.844 L285.952,92.484 C286.044,92.427 286.146,92.388 286.253,92.371 C286.774,92.285 288.274,92.123 287.325,93.328 C286.252,94.695 260.678,117.612 257.84,120.153 C257.676,120.3 257.575,120.504 257.557,120.723 L256.318,135.489 C256.318,135.794 256.461,136.081 256.705,136.264 C257.056,136.485 257.509,136.451 257.822,136.179 L266.791,128.164 C267.083,127.903 267.517,127.881 267.834,128.11 L283.482,139.472 L283.532,139.506 C283.911,139.74 288.002,142.12 289.183,136.804 L299.984,85.446 C299.999,85.283 300.145,83.495 298.867,82.438 C297.524,81.333 295.624,81.891 295.338,81.951 C295.296,81.963 295.255,81.978 295.215,81.996 Z" />
        </g>
        <g id="Regular-S">
            <path d="M495.215,81.996 L431.821,106.528 C431.783,106.542 431.747,106.56 431.712,106.58 C431.198,106.871 427.61,109.065 432.669,111.033 L432.721,111.052 L447.816,115.929 C448.049,116.004 448.304,115.973 448.512,115.844 L485.952,92.484 C486.044,92.427 486.146,92.388 486.253,92.371 C486.774,92.285 488.274,92.123 487.325,93.328 C486.252,94.695 460.678,117.612 457.84,120.153 C457.676,120.3 457.575,120.504 457.557,120.723 L456.318,135.489 C456.318,135.794 456.461,136.081 456.705,136.264 C457.056,136.485 457.509,136.451 457.822,136.179 L466.791,128.164 C467.083,127.903 467.517,127.881 467.834,128.11 L483.482,139.472 L483.532,139.506 C483.911,139.74 488.002,142.12 489.183,136.804 L499.984,85.446 C499.999,85.283 500.145,83.495 498.867,82.438 C497.524,81.333 495.624,81.891 495.338,81.951 C495.296,81.963 495.255,81.978 495.215,81.996 Z" />
        </g>
        <g id="Black-S">
            <path d="M695.215,81.996 L631.821,106.528 C631.783,106.542 631.747,106.56 631.712,106.58 C631.198,106.871 627.61,109.065 632.669,111.033 L632.721,111.052 L647.816,115.929 C648.049,116.004 648.304,115.973 648.512,115.844 L685.952,92.484 C686.044,92.427 686.146,92.388 686.253,92.371 C686.774,92.285 688.274,92.123 687.325,93.328 C686.252,94.695 660.678,117.612 657.84,120.153 C657.676,120.3 657.575,120.504 657.557,120.723 L656.318,135.489 C656.318,135.794 656.461,136.081 656.705,136.264 C657.056,136.485 657.509,136.451 657.822,136.179 L666.791,128.164 C667.083,127.903 667.517,127.881 667.834,128.11 L683.482,139.472 L683.532,139.506 C683.911,139.74 688.002,142.12 689.183,136.804 L699.984,85.446 C699.999,85.283 700.145,83.495 698.867,82.438 C697.524,81.333 695.624,81.891 695.338,81.951 C695.296,81.963 695.255,81.978 695.215,81.996 Z" />
        </g>
    </g>
</svg>